<svg version="1" xmlns="http://www.w3.org/2000/svg" width="180" height="31" viewBox="0 0 180 31"><path fill="#1A1919" d="M95.922 21.369v-10.355h2.783l3.83 5.807h.029v-5.807h2.585v10.355h-2.614l-3.998-5.793h-.029v5.793h-2.586zm-10.513-4.157v-6.198h2.826v6.185c0 1.428.466 2.071 1.597 2.071 1.13 0 1.583-.644 1.583-2.071v-6.185h2.769v6.198c0 2.743-1.327 4.311-4.38 4.311-3.054-.001-4.395-1.568-4.395-4.311zm-6.898-1.566h1.215c1.158 0 1.667-.322 1.667-1.189s-.509-1.175-1.667-1.175h-1.215v2.364zm-2.769 5.723v-10.355h4.083c2.685 0 4.324.881 4.324 3.373 0 1.624-.693 2.561-2.063 3.022l2.219 3.961h-2.996l-2.02-3.598h-.777v3.598h-2.77zm-10.67 0v-8.033h-3.01v-2.323h8.845v2.323h-3.009v8.033h-2.826zm-12.606-2.281l2.091-1.288c.622.995 1.653 1.567 2.741 1.567.862 0 1.512-.252 1.512-.896 0-.657-.833-.909-1.865-1.161-1.709-.434-3.984-.867-3.984-3.219 0-2.113 1.61-3.274 3.984-3.274 2.219 0 3.546 1.021 4.38 2.029l-1.894 1.54c-.579-.7-1.597-1.301-2.5-1.301-.806 0-1.216.266-1.216.755 0 .686.82.938 1.852 1.189 1.709.406 3.999.923 3.999 3.246 0 1.651-1.173 3.289-4.395 3.289-2.388 0-3.815-1.063-4.705-2.476zm-8.466 2.281v-10.355h7.461v2.323h-4.635v1.679h3.307v2.183h-3.307v1.917h4.874v2.254h-7.7zm-7.068-2.099h1.413c1.06 0 1.512-.406 1.512-1.119s-.466-1.078-1.541-1.078h-1.384v2.197zm0-4.128h1.342c1.018 0 1.398-.392 1.398-.993 0-.616-.381-.994-1.37-.994h-1.371v1.987zm-2.769 6.227v-10.355h4.394c1.738 0 3.801.266 3.801 2.547 0 1.497-.932 2.169-1.978 2.364v.028c1.272.225 2.232.826 2.232 2.547 0 2.252-2.119 2.869-3.885 2.869h-4.564zm-13.157 0v-10.355h7.46v2.323h-4.634v1.679h3.306v2.183h-3.306v1.917h4.875v2.254h-7.701zm-10.944-10.355h2.826v3.848h3.476v-3.848h2.827v10.355h-2.827v-4.185h-3.476v4.185h-2.826v-10.355zm-7.052 10.355v-8.033h-3.01v-2.323h8.845v2.323h-3.009v8.033h-2.826z"/><path fill="#0A6ED1" d="M157.868 30.205c-.354 0-.681-.088-.98-.263s-.538-.413-.714-.712c-.176-.3-.264-.627-.264-.983 0-.354.088-.681.263-.979.175-.301.413-.538.712-.714.3-.177.627-.265.983-.265.354 0 .681.088.979.265.301.176.538.413.714.714.177.299.265.626.265.979 0 .356-.088.684-.265.983-.176.299-.413.537-.714.712-.298.175-.625.263-.979.263zm0-.255c.309 0 .594-.076.855-.229.262-.153.469-.358.622-.618.152-.261.229-.546.229-.856 0-.307-.077-.591-.23-.852s-.361-.468-.621-.62c-.262-.152-.546-.229-.854-.229-.308 0-.591.076-.851.229s-.466.359-.619.62c-.152.261-.229.545-.229.852 0 .311.076.596.229.856.153.26.359.465.619.618.259.153.543.229.85.229zm-.772-2.821h.826c.253 0 .448.057.586.17.139.114.207.271.207.472 0 .179-.045.325-.137.438-.09.114-.215.188-.371.223l.598.947h-.395l-.537-.91h-.434v.91h-.344v-2.25zm.832 1.08c.143 0 .252-.038.328-.115.077-.076.115-.182.115-.318 0-.122-.041-.217-.125-.282s-.199-.099-.346-.099h-.461v.814h.489z"/><linearGradient id="a" gradientUnits="userSpaceOnUse" x1="80.484" y1="16.22" x2="80.484" y2="15.22" gradientTransform="matrix(59.406 0 0 -29.391 -4631.69 477.477)"><stop offset="0" stop-color="#00AEEF"/><stop offset=".212" stop-color="#0097DC"/><stop offset=".519" stop-color="#007CC5"/><stop offset=".792" stop-color="#006CB8"/><stop offset="1" stop-color="#0066B3"/></linearGradient><path fill="url(#a)" d="M119.842 30.146h30.015l29.391-29.39h-59.406v29.39"/><path fill="#fff" d="M155.125 6.648h-5.893v13.794l-5.06-13.794h-5.06l-4.367 11.507c-.486-2.912-3.467-3.951-5.893-4.714-1.594-.485-3.258-1.248-3.258-2.08 0-.693.9-1.317 2.634-1.178 1.179.069 2.218.139 4.298 1.178l2.01-3.535c-1.871-.971-4.506-1.594-6.654-1.594-2.495 0-4.574.832-5.822 2.149-.901.901-1.387 2.08-1.387 3.396 0 1.802.624 3.05 2.01 4.09 1.18.832 2.635 1.386 3.951 1.802 1.595.485 2.981.971 2.912 1.871 0 .348-.139.624-.416.901-.416.416-1.04.555-1.871.624-1.664.069-2.912-.208-4.854-1.387l-1.802 3.605c1.94 1.108 4.021 1.663 6.378 1.663h.555c2.079-.069 3.742-.555 5.06-1.595l.208-.207-.208 1.178h4.921l.902-2.287c.9.346 2.01.484 3.119.484s2.148-.139 3.05-.484l.624 2.218h8.873v-5.198h1.871c4.574 0 7.278-2.357 7.278-6.239.071-4.296-2.564-6.168-8.109-6.168zm-13.518 11.784c-.692 0-1.316-.139-1.871-.346l1.871-5.823h.07l1.732 5.823c-.554.207-1.177.346-1.802.346zm13.865-3.327h-1.317v-4.713h1.317c1.733 0 3.119.554 3.119 2.356-.07 1.733-1.456 2.357-3.119 2.357z"/><path fill="none" d="M0 .756h179.803v29.806h-179.803z"/></svg>