<svg version="1" xmlns="http://www.w3.org/2000/svg" width="87" height="43" viewBox="0 0 87 43"><path fill="#0A6ED1" d="M55.357 42.483c-.511 0-.982-.126-1.414-.379-.433-.253-.775-.595-1.029-1.027s-.381-.905-.381-1.418c0-.511.126-.981.379-1.414.252-.433.595-.775 1.027-1.029.432-.254.904-.381 1.418-.381.51 0 .981.127 1.414.381.432.254.775.597 1.029 1.029s.381.903.381 1.414c0 .513-.127.985-.381 1.418s-.598.774-1.029 1.027c-.432.253-.904.379-1.414.379zm0-.367c.445 0 .856-.11 1.234-.33.377-.22.676-.518.896-.893.22-.375.33-.786.33-1.234 0-.442-.111-.853-.332-1.229-.222-.376-.521-.675-.896-.895-.377-.22-.787-.33-1.232-.33-.443 0-.852.11-1.227.33s-.673.519-.893.895c-.221.376-.33.786-.33 1.229 0 .448.109.859.33 1.234.22.375.518.673.893.893s.784.33 1.227.33zm-1.113-4.07h1.191c.364 0 .646.082.846.246s.299.391.299.68c0 .258-.066.469-.197.633-.132.164-.311.271-.537.32l.863 1.367h-.57l-.773-1.312h-.626v1.312h-.496v-3.246zm1.199 1.558c.205 0 .363-.056.475-.166.11-.11.166-.264.166-.459 0-.177-.061-.313-.182-.408s-.287-.143-.498-.143h-.664v1.176h.703z"/><linearGradient id="a" gradientUnits="userSpaceOnUse" x1="33.458" y1="26.59" x2="33.458" y2="25.59" gradientTransform="matrix(85.7 0 0 -42.4 -2824 1127.4)"><stop offset="0" stop-color="#00AEEF"/><stop offset=".212" stop-color="#0097DC"/><stop offset=".519" stop-color="#007CC5"/><stop offset=".792" stop-color="#006CB8"/><stop offset="1" stop-color="#0066B3"/></linearGradient><path fill="url(#a)" d="M.5 42.4h43.3l42.4-42.4h-85.7v42.4"/><path fill="#fff" d="M51.4 8.5h-8.5v19.9l-7.3-19.9h-7.3l-6.3 16.6c-.7-4.2-5-5.7-8.5-6.8-2.3-.7-4.7-1.8-4.7-3 0-1 1.3-1.9 3.8-1.7 1.7.1 3.2.2 6.2 1.7l2.9-5.1c-2.7-1.4-6.5-2.3-9.6-2.3-3.6 0-6.6 1.2-8.4 3.1-1.3 1.3-2 3-2 4.9 0 2.6.9 4.4 2.9 5.9 1.7 1.2 3.8 2 5.7 2.601 2.3.699 4.3 1.399 4.2 2.699 0 .5-.2.9-.6 1.301-.6.6-1.5.8-2.7.899-2.4.101-4.2-.3-7-2l-2.6 5.2c2.8 1.6 5.8 2.4 9.2 2.4h.8c3-.101 5.4-.801 7.3-2.301l.3-.3-.3 1.701h7.1l1.3-3.3c1.3.5 2.9.7 4.5.7s3.1-.2 4.4-.7l.9 3.2h12.8v-7.5h2.7c6.601 0 10.5-3.4 10.5-9 .1-6.2-3.7-8.9-11.7-8.9zm-19.5 17c-1 0-1.9-.2-2.7-.5l2.7-8.4h.1l2.5 8.4c-.8.3-1.7.5-2.6.5zm20-4.8h-1.9v-6.8h1.9c2.5 0 4.5.8 4.5 3.4-.1 2.5-2.1 3.4-4.5 3.4z"/><path fill="none" d="M0 0h87v43h-87z"/></svg>